<svg width="421" height="576" viewBox="0 0 421 576" fill="none" xmlns="http://www.w3.org/2000/svg">
<path d="M262 364L228.5 397.5C228.5 397.5 226.5 400.077 226.5 402C226.5 403.923 228.5 406.5 228.5 406.5L241 418.5C241 418.5 251.077 426.057 258 430C266.066 434.594 270.588 436.404 279.5 439C285.824 440.842 289.472 441.62 296 442.5C301.239 443.207 304.213 443.5 309.5 443.5C314.787 443.5 317.754 443.154 323 442.5C330.106 441.614 334.134 441.034 341 439C349.137 436.589 353.576 434.612 361 430.5C367.396 426.957 370.733 424.495 376.5 420C381.411 416.172 384.128 413.934 388.5 409.5C393.66 404.266 396.363 401.076 400.5 395C403.799 390.155 405.422 387.264 408 382C411.046 375.78 412.568 372.228 414.5 365.5C415.927 360.531 416.657 357.881 417.5 352.5C418.83 344.012 418.908 338.582 418.5 330C418.174 323.149 418.349 319.225 417 312.5C415.919 307.109 413 299 413 299C413 299 409.5 289 406 282.5C402.5 276 400.5 273.5 396 268C391.5 262.5 380.5 253 380.5 253C380.5 253 378.485 251.569 377 251.5C375.333 251.423 373 253 373 253L337 290C337 290 333.612 292.776 333.5 295C333.38 297.38 337 300 337 300C337 300 342.583 304.822 345.5 308.5C348.227 311.938 349.582 313.755 351.5 318C353.179 321.716 354.297 324.047 355 328.5C355.883 334.097 356.086 338.442 355 344C353.909 349.587 352.828 352.559 350 357.5C347.982 361.026 346.558 362.843 344 366C341.131 369.542 336 374.5 336 374.5C336 374.5 329.915 378.823 325.5 380.5C319.768 382.678 310 383 310 383C310 383 301.668 383.528 296 382C289.845 380.34 285.671 378.229 280.5 374.5C275.683 371.026 269.5 364 269.5 364C269.5 364 267.485 362.569 266 362.5C264.333 362.423 262 364 262 364Z" fill="#0074CD" stroke="black"/>
<path d="M30.0642 201.6C9.06418 227.6 0.144888 248.115 1.0642 280.6C1.5519 297.834 4.24932 307.763 11.0642 323.6C18.0214 339.767 30.5642 356.1 36.0642 361.1C38.9898 363.76 41.611 364.536 45.5642 364.6C49.7012 364.668 55.5642 361.1 55.5642 361.1L117.064 299.6C117.064 299.6 117.847 298.608 118.064 298.1C118.295 297.562 118.064 297.1 118.064 297.1H45.0642C45.0642 297.1 37.0642 295.868 37.0642 285.1C37.0642 274.333 45.0642 273.1 45.0642 273.1H118.064C118.064 273.1 119.917 272.739 120.564 271.6C121.558 269.852 118.564 266.6 118.564 266.6L101.064 248.1C101.064 248.1 95.4245 240.617 95.0642 234.6C94.6803 228.189 101.064 219.1 101.064 219.1C101.064 219.1 189.064 130.1 239.564 80.6001C252.564 67.8575 261.064 66.6001 261.064 66.6001C261.064 66.6001 286.564 55.6001 313.564 68.6001C340.564 81.6001 350.064 102.6 350.064 102.6C350.064 102.6 358.06 126.716 354.564 145.1C350.847 164.65 337.595 178.569 336.564 179.6C334.564 181.6 152.064 365.6 152.064 365.6C152.064 365.6 143.224 375.518 138.564 382.6C134.05 389.461 131.905 393.598 128.564 401.1C126.1 406.633 123.064 415.6 123.064 415.6C123.064 415.6 120.442 427.413 119.564 435.1C118.788 441.901 118.575 445.755 118.564 452.6C118.553 459.64 118.559 463.632 119.564 470.6C121.162 481.67 123.07 487.858 127.564 498.1C131.467 506.994 132.564 509.1 140.064 519.6C147.564 530.1 152.064 535.6 161.564 544.6C171.064 553.6 178.064 557.6 190.064 563.6C217.3 577.218 239.5 575.687 253.564 575.1C287.5 573.684 319.5 554 329.5 542.5C339.5 531 375 501.5 394 470C396.539 465.79 397.396 459.594 394 455C390.65 450.468 385.626 451.169 380 451.5C363 452.5 343.5 454.5 334.5 455.5C330.937 455.896 329.274 457.73 326.5 460C321 464.5 298.5 493.5 275 509C269.681 512.509 266.765 513.337 260.5 514.5C254.153 515.678 250.659 515.774 244 515.5C237.874 515.248 233.892 515.198 228 513.5C218.265 510.694 212.897 507.846 205 501.5C198.134 495.983 194.697 492.091 190.064 484.6C186.546 478.912 184.916 475.407 183 469C180.411 460.344 179.867 455.013 180.5 446C181.121 437.166 182.158 431.979 186 424C189.686 416.344 193.894 413.343 199.064 406.6C207.192 396 379.404 227.976 391.064 213.1C399.686 202.1 415.064 175.1 416.064 167.6C420.232 136.345 423.957 111.358 410.064 80.1001C390.064 35.1001 356.564 20.1001 356.564 20.1001C356.564 20.1001 345.444 13.8245 330.064 8.60009C314.288 3.24109 304.719 1.56395 288.064 1.10009C268.935 0.567318 257.693 2.05706 239.564 8.10009C214.064 16.6001 198.064 34.1001 198.064 34.1001C198.064 34.1001 32.0758 199.109 30.0642 201.6Z" fill="#0074CD" stroke="black"/>
<path fill-rule="evenodd" clip-rule="evenodd" d="M174.5 320L208.5 286.5C208.5 286.5 209.232 285.651 209.5 285C210.02 283.736 210.008 282.769 209.5 281.5C209.011 280.277 208.333 279.27 207.626 278.221C206.888 277.126 206.119 275.984 205.5 274.5C203.436 269.552 202.98 266.362 203 261C203.033 252.17 206 246.5 210 239.5C214.676 231.317 225 225 228.5 224C230.77 223.351 235.59 222.071 241 222C243.932 221.961 248 222.5 250 223C252 223.5 256 225.5 256 225.5L262 229C262 229 263.461 230.16 264.5 230C265.465 229.852 267 228 267 228L304 190.5C304 190.5 306.108 188.571 306 187C305.903 185.595 304 184 304 184C304 184 291.995 174.26 283 170.5C273.6 166.572 267.693 165.377 257.5 164.5C249.716 163.83 244.955 163.603 237 164.5C224.659 165.891 217.307 167.364 206 172.5C188.968 180.236 179 189 168 202C155.701 216.535 149.346 229.871 146.5 246C143.5 263 145 274.5 149.5 291C153.165 304.44 161.5 313 167 320C168.079 321.373 169.256 322.097 171 322C172.572 321.913 174.5 320 174.5 320Z" fill="#0074CD"/>
<path fill-rule="evenodd" clip-rule="evenodd" d="M174.5 320L208.5 286.5C208.5 286.5 209.232 285.651 209.5 285C210.02 283.736 210.008 282.769 209.5 281.5C209.011 280.277 208.333 279.27 207.626 278.221C206.888 277.126 206.119 275.984 205.5 274.5C203.436 269.552 202.98 266.362 203 261C203.033 252.17 206 246.5 210 239.5C214.676 231.317 225 225 228.5 224C230.77 223.351 235.59 222.071 241 222C243.932 221.961 248 222.5 250 223C252 223.5 256 225.5 256 225.5L262 229C262 229 263.461 230.16 264.5 230C265.465 229.852 267 228 267 228L304 190.5C304 190.5 306.108 188.571 306 187C305.903 185.595 304 184 304 184C304 184 291.995 174.26 283 170.5C273.6 166.572 267.693 165.377 257.5 164.5C249.716 163.83 244.955 163.603 237 164.5C224.659 165.891 217.307 167.364 206 172.5C188.968 180.236 179 189 168 202C155.701 216.535 149.346 229.871 146.5 246C143.5 263 145 274.5 149.5 291C153.165 304.44 161.5 313 167 320C168.079 321.373 169.256 322.097 171 322C172.572 321.913 174.5 320 174.5 320Z" fill="#0074CD"/>
<path fill-rule="evenodd" clip-rule="evenodd" d="M174.5 320L208.5 286.5C208.5 286.5 209.232 285.651 209.5 285C210.02 283.736 210.008 282.769 209.5 281.5C209.011 280.277 208.333 279.27 207.626 278.221C206.888 277.126 206.119 275.984 205.5 274.5C203.436 269.552 202.98 266.362 203 261C203.033 252.17 206 246.5 210 239.5C214.676 231.317 225 225 228.5 224C230.77 223.351 235.59 222.071 241 222C243.932 221.961 248 222.5 250 223C252 223.5 256 225.5 256 225.5L262 229C262 229 263.461 230.16 264.5 230C265.465 229.852 267 228 267 228L304 190.5C304 190.5 306.108 188.571 306 187C305.903 185.595 304 184 304 184C304 184 291.995 174.26 283 170.5C273.6 166.572 267.693 165.377 257.5 164.5C249.716 163.83 244.955 163.603 237 164.5C224.659 165.891 217.307 167.364 206 172.5C188.968 180.236 179 189 168 202C155.701 216.535 149.346 229.871 146.5 246C143.5 263 145 274.5 149.5 291C153.165 304.44 161.5 313 167 320C168.079 321.373 169.256 322.097 171 322C172.572 321.913 174.5 320 174.5 320Z" stroke="black"/>
</svg>
